<svg width="457" height="370" viewBox="0 0 457 370" fill="none" xmlns="http://www.w3.org/2000/svg">
<g clip-path="url(#clip0)">
<g filter="url(#filter0_d)">
<path d="M262.989 323.508H-4.47991C-4.5791 323.495 -4.67079 323.438 -4.73739 323.349C-4.80399 323.259 -4.84082 323.143 -4.84082 323.023C-4.84082 322.903 -4.80399 322.788 -4.73739 322.698C-4.67079 322.609 -4.5791 322.552 -4.47991 322.539H262.989C263.088 322.552 263.18 322.609 263.247 322.698C263.313 322.788 263.35 322.903 263.35 323.023C263.35 323.143 263.313 323.259 263.247 323.349C263.18 323.438 263.088 323.495 262.989 323.508V323.508Z" fill="#CACACA"/>
</g>
<g filter="url(#filter1_d)">
<path d="M51.3345 311.62L48.7441 324.424L96.9153 340.506L100.739 321.609L51.3345 311.62Z" fill="#FFB6B6"/>
</g>
<g filter="url(#filter2_d)">
<path d="M56.178 309.2L51.076 334.415L51.0758 334.416C50.213 338.677 47.6922 342.422 44.0678 344.826C40.4434 347.229 36.0122 348.096 31.7489 347.234L31.2266 347.128L39.5802 305.844L56.178 309.2Z" fill="#2F2E41"/>
</g>
<g filter="url(#filter3_d)">
<path d="M105.922 135.257C123.986 135.257 138.63 120.619 138.63 102.562C138.63 84.5045 123.986 69.8662 105.922 69.8662C87.8579 69.8662 73.2139 84.5045 73.2139 102.562C73.2139 120.619 87.8579 135.257 105.922 135.257Z" fill="#FEB8B8"/>
</g>
<g filter="url(#filter4_d)">
<path d="M136.472 74.3547C131.582 66.417 123.928 60.5679 114.982 57.9335L110.966 60.8627V57.0593C108.818 56.7306 106.644 56.604 104.471 56.6811L101.007 59.8144V56.9414C95.8779 57.5786 90.9363 59.2711 86.494 61.9125C82.0517 64.5538 78.2051 68.0865 75.1967 72.2879C67.6733 83.1295 66.4034 98.2125 73.8031 109.141C75.8342 102.901 78.2997 97.0457 80.3314 90.8062C81.9279 91.0237 83.546 91.0316 85.1445 90.8295L87.6157 85.0652L88.3062 90.5856C95.9664 89.9187 107.328 88.4538 114.59 87.1119L113.883 82.8767L118.108 86.3958C120.333 85.884 121.654 85.4194 121.545 85.0646C126.946 93.7681 133.555 99.3269 138.955 108.03C141.007 95.758 143.368 85.5537 136.472 74.3547Z" fill="#2F2E41"/>
</g>
<g filter="url(#filter5_d)">
<path d="M116.565 316.515C163.077 316.515 200.784 305.972 200.784 292.966C200.784 279.961 163.077 269.418 116.565 269.418C70.0518 269.418 32.3457 279.961 32.3457 292.966C32.3457 305.972 70.0518 316.515 116.565 316.515Z" fill="#2F2E41"/>
</g>
<g filter="url(#filter6_d)">
<path d="M176.269 186.639C175.144 179.875 173.984 172.981 170.839 166.888C168.773 162.897 165.492 159.094 161.069 158.304C160.197 158.227 159.341 158.029 158.525 157.716C157.229 157.092 139.813 147.154 137.045 145.423C134.669 143.937 130.917 141.186 129.025 141.186C127.122 141.144 119.825 142.842 91.3424 140.616C86.5514 142.539 81.9119 144.819 77.4634 147.437C77.3716 147.377 47.9011 163.196 46.7939 163.155C44.6971 163.066 42.7482 164.408 41.5461 166.098C40.3444 167.788 39.7807 169.88 39.1904 171.903C45.6273 186.232 51.5167 200.58 57.9542 214.909C58.2556 215.448 58.4157 216.056 58.4197 216.674C58.2904 217.315 58.0165 217.919 57.6189 218.439C54.4621 223.508 54.5624 229.883 54.9073 235.841C55.2524 241.799 55.6792 248.092 53.0156 253.432C52.2911 254.898 51.3489 256.24 50.6599 257.706C49.0462 261.027 48.463 271.647 49.4055 275.215L167.49 278.596C164.951 271.62 176.269 186.639 176.269 186.639Z" fill="#2A324B"/>
</g>
<g filter="url(#filter7_d)">
<path d="M28.9835 215.544C28.7479 217.247 28.7242 218.974 28.9129 220.683L30.6053 244.98C30.7642 247.27 30.9206 249.554 31.1356 251.838C31.5417 256.271 32.1483 260.669 32.9012 265.061C32.9183 265.684 33.182 266.275 33.6347 266.705C34.0873 267.134 34.6919 267.366 35.3157 267.351C42.7659 268.926 50.4632 268.863 58.0667 268.434C69.6691 267.787 99.3526 266.562 101.166 264.207C102.98 261.852 101.923 258.043 99.5582 256.139C97.1935 254.235 58.0219 249.593 58.0219 249.593C58.4046 246.561 59.5592 243.705 60.6545 240.827C62.6219 235.721 64.4594 230.448 64.4947 224.978C64.53 219.509 62.4687 213.759 57.9866 210.625C54.2996 208.053 49.5527 207.576 45.0599 207.682C41.791 207.776 36.143 206.993 33.1573 208.27C30.7945 209.31 29.4249 213.231 28.9835 215.544Z" fill="#FBBEBE"/>
</g>
<g filter="url(#filter8_d)">
<path d="M176.479 270.466C178.44 269.719 180.601 269.989 182.704 270.272C189.471 271.196 196.338 272.144 202.61 274.847C205.555 276.107 208.358 277.79 210.349 280.267C212.115 282.499 213.146 285.231 214.124 287.921L216.386 294.114C217.348 296.441 218.011 298.88 218.359 301.373C219.066 308.785 213.995 315.773 207.617 319.624C201.239 323.474 193.73 324.845 186.414 326.282C179.099 327.718 171.756 329.307 164.471 330.991C161.073 331.873 157.625 332.551 154.146 333.022C146.349 333.905 138.198 332.604 130.789 335.183C127.844 336.214 124.952 337.744 121.898 338.456C119.867 338.883 117.815 339.196 115.749 339.392L101.726 340.993C98.8749 341.375 96.0042 341.595 93.128 341.653C87.0032 341.653 80.9781 340.203 75.0306 338.753C74.3986 338.642 73.7971 338.399 73.265 338.041C72.3229 337.299 72.1167 335.986 71.9812 334.797C71.3805 329.534 70.855 324.265 70.4048 318.991C70.2635 317.277 70.1576 315.423 71.094 313.981C72.2719 312.216 74.569 311.661 76.6657 311.32C85.5562 309.866 94.5627 309.241 103.569 309.453C106.99 306.033 112.633 306.015 117.115 304.155C118.764 303.398 120.36 302.53 121.891 301.558C129.908 296.883 138.868 294.053 148.117 293.275C149.928 293.22 151.728 292.964 153.482 292.51C156.95 291.433 160.114 288.501 163.677 289.219C164.118 288.001 164.425 286.37 165.442 285.534C165.947 285.104 166.573 284.816 167.038 284.356C168.022 283.362 168.11 281.795 167.963 280.406C167.815 279.017 167.485 277.592 167.845 276.238C167.994 275.725 168.214 275.236 168.499 274.784C170.259 271.738 172.927 270.172 176.479 270.466Z" fill="#2F2E41"/>
</g>
<g filter="url(#filter9_d)">
<path d="M38.8494 172.339C38.2758 172.94 37.8309 173.651 37.5422 174.429C32.7817 185.154 29.9698 196.641 29.2382 208.351C29.2511 208.922 29.1194 209.487 28.8555 209.994C28.5952 210.331 28.3055 210.644 27.9897 210.93C27.7144 211.256 27.5061 211.633 27.3767 212.04C27.2472 212.446 27.1992 212.875 27.2353 213.3C27.2714 213.725 27.3909 214.139 27.5871 214.518C27.7832 214.897 28.0522 215.234 28.3785 215.509C28.4321 215.554 28.487 215.598 28.5434 215.639C29.5151 213.811 31.8412 213.214 33.9089 213.055C43.8088 212.272 53.4792 216.876 63.4088 216.529C62.7083 214.109 61.7006 211.784 61.1293 209.335C58.6026 198.461 64.9045 186.622 61.041 176.149C60.2692 174.053 58.9797 171.993 56.948 171.074C56.1067 170.735 55.2264 170.502 54.3274 170.381C51.8183 169.928 46.8236 167.991 44.3978 168.768C43.5024 169.057 43.1492 169.898 42.4071 170.407C41.2796 171.127 39.7839 171.391 38.8494 172.339Z" fill="#2A324B"/>
</g>
<g filter="url(#filter10_d)">
<path d="M176.34 208.27C173.354 206.993 167.706 207.776 164.438 207.682C159.945 207.576 155.198 208.053 151.511 210.625C147.029 213.759 144.967 219.509 145.003 224.978C145.038 230.448 146.876 235.721 148.843 240.827C149.938 243.705 151.093 246.561 151.476 249.593C151.476 249.593 112.304 254.235 109.939 256.139C107.575 258.043 106.518 261.852 108.331 264.207C110.145 266.562 166.732 268.926 174.182 267.351C174.806 267.366 175.41 267.134 175.863 266.705C176.315 266.275 176.579 265.684 176.596 265.061C177.349 260.669 177.956 256.271 178.362 251.838C178.577 249.554 178.733 247.27 178.892 244.98L180.585 220.683C180.773 218.974 180.75 217.247 180.514 215.544C180.073 213.231 178.703 209.31 176.34 208.27Z" fill="#FBBEBE"/>
</g>
<g filter="url(#filter11_d)">
<path d="M167.089 170.407C166.346 169.898 165.993 169.057 165.098 168.768C162.672 167.991 157.677 169.928 155.168 170.381C154.269 170.502 153.389 170.735 152.548 171.074C150.516 171.993 149.227 174.053 148.455 176.149C144.591 186.622 150.893 198.461 148.366 209.335C147.795 211.784 146.787 214.109 146.087 216.529C156.017 216.876 165.687 212.272 175.587 213.055C177.655 213.214 179.981 213.811 180.952 215.639C181.009 215.598 181.064 215.554 181.117 215.509C181.444 215.234 181.712 214.897 181.909 214.518C182.105 214.139 182.224 213.725 182.26 213.3C182.297 212.875 182.249 212.446 182.119 212.04C181.99 211.633 181.781 211.256 181.506 210.93C181.19 210.644 180.901 210.331 180.64 209.994C180.376 209.487 180.245 208.922 180.258 208.351C179.526 196.641 176.714 185.154 171.954 174.429C171.665 173.651 171.22 172.94 170.646 172.339C169.712 171.391 168.216 171.127 167.089 170.407Z" fill="#2A324B"/>
</g>
<g filter="url(#filter12_d)">
<path d="M183.649 329.897L181.927 342.846L131.143 342.37L133.684 323.259L183.649 329.897Z" fill="#FFB6B6"/>
</g>
<g filter="url(#filter13_d)">
<path d="M196.645 328.263L191.094 370.016L190.565 369.946C186.254 369.373 182.346 367.111 179.703 363.659C177.059 360.206 175.895 355.845 176.468 351.535L176.468 351.534L179.859 326.033L196.645 328.263Z" fill="#2F2E41"/>
</g>
<g filter="url(#filter14_d)">
<path d="M64.1726 277.019C64.1726 277.608 63.2481 277.019 63.1636 276.389C62.516 271.626 58.7345 267.699 54.3294 265.792C49.9242 263.884 44.9061 263.784 40.1359 264.237C32.9215 264.92 24.8231 267.681 22.1848 274.422C21.5605 275.998 15.7126 290.029 16.2833 293.184C17.8206 301.603 23.5802 308.803 30.5594 313.79C37.5385 318.776 45.6931 321.755 53.8274 324.442C75.3338 331.532 97.399 336.8 119.789 340.19C123.417 340.738 127.081 341.244 130.555 342.409C133.665 343.451 136.574 345.011 139.613 346.236C146.681 349.073 154.284 350.086 161.816 351.081C163.1 351.247 164.573 351.364 165.521 350.493C166.746 349.358 166.341 347.378 165.992 345.748C164.714 339.547 165.786 333.093 169.002 327.639C170.263 325.52 171.902 323.347 171.664 320.895C171.381 318.034 168.531 316.008 165.692 315.549C162.853 315.089 159.967 315.767 157.116 316.138C156.139 316.362 155.115 316.261 154.201 315.849C153.777 315.563 153.393 315.223 153.058 314.837C151.095 312.943 148.581 311.72 145.879 311.342C143.177 310.965 140.425 311.452 138.017 312.735C136.962 313.324 135.368 312.011 134.271 311.517L121.885 305.912C107.657 299.478 93.3572 293.013 78.3036 288.939C77.1025 288.703 75.9609 288.228 74.9465 287.544C74.1986 286.955 73.6626 286.157 72.9734 285.501C71.4714 284.082 69.3792 283.516 67.5789 282.51C65.7786 281.503 63.7602 279.038 64.1726 277.019Z" fill="#2F2E41"/>
</g>
<path d="M96.2362 268.511C101.112 268.511 105.064 264.561 105.064 259.687C105.064 254.813 101.112 250.862 96.2362 250.862C91.3606 250.862 87.4082 254.813 87.4082 259.687C87.4082 264.561 91.3606 268.511 96.2362 268.511Z" fill="#FBBEBE"/>
<path d="M115.783 268.511C120.659 268.511 124.611 264.561 124.611 259.687C124.611 254.813 120.659 250.862 115.783 250.862C110.908 250.862 106.955 254.813 106.955 259.687C106.955 264.561 110.908 268.511 115.783 268.511Z" fill="#FBBEBE"/>
<path d="M170.277 279.571H48.9934C47.5774 279.57 46.2199 279.007 45.2186 278.006C44.2173 277.005 43.654 275.648 43.6523 274.233V200.682C43.654 199.267 44.2173 197.91 45.2186 196.909C46.2199 195.908 47.5774 195.345 48.9934 195.344H170.277C171.692 195.345 173.05 195.908 174.051 196.909C175.053 197.91 175.616 199.267 175.618 200.682V274.233C175.616 275.648 175.053 277.005 174.051 278.006C173.05 279.007 171.692 279.57 170.277 279.571Z" fill="#767B91"/>
<path d="M109.34 240.99C111.292 240.99 112.874 239.409 112.874 237.458C112.874 235.507 111.292 233.926 109.34 233.926C107.389 233.926 105.807 235.507 105.807 237.458C105.807 239.409 107.389 240.99 109.34 240.99Z" fill="white"/>
<g filter="url(#filter15_d)">
<path d="M252.787 304.326C251.638 304.326 250.514 304.636 249.558 305.216C248.602 305.797 247.857 306.622 247.417 307.587C246.977 308.552 246.862 309.615 247.086 310.639C247.311 311.664 247.864 312.606 248.677 313.344C249.49 314.083 250.526 314.586 251.653 314.79C252.781 314.994 253.949 314.889 255.011 314.49C256.074 314.09 256.981 313.413 257.62 312.544C258.259 311.675 258.6 310.654 258.6 309.609C258.6 308.208 257.987 306.864 256.897 305.873C255.807 304.882 254.329 304.326 252.787 304.326ZM252.787 312.86C252.08 312.86 251.388 312.669 250.8 312.312C250.212 311.955 249.753 311.447 249.482 310.853C249.212 310.259 249.141 309.605 249.279 308.974C249.417 308.344 249.758 307.764 250.258 307.31C250.758 306.855 251.395 306.545 252.089 306.42C252.783 306.295 253.502 306.359 254.156 306.605C254.81 306.851 255.368 307.268 255.761 307.802C256.154 308.337 256.364 308.966 256.364 309.609V309.609C256.364 310.471 255.987 311.298 255.316 311.908C254.646 312.517 253.736 312.86 252.787 312.86V312.86Z" fill="#F7C59F"/>
<path d="M230.431 300.262H252.787V320.373C252.787 321.075 252.48 321.748 251.934 322.244C251.388 322.741 250.647 323.02 249.875 323.02H233.343C232.571 323.02 231.83 322.741 231.284 322.244C230.737 321.748 230.431 321.075 230.431 320.373V300.262V300.262Z" fill="#F7C59F"/>
</g>
</g>
<g filter="url(#filter16_d)">
<path d="M408.009 253.344H315.594C315.104 253.343 314.634 253.123 314.287 252.732C313.941 252.341 313.746 251.81 313.745 251.257V231.602H314.485V251.257C314.485 251.589 314.602 251.907 314.81 252.142C315.018 252.377 315.3 252.509 315.594 252.509H408.009C408.303 252.509 408.585 252.377 408.793 252.142C409.001 251.907 409.118 251.589 409.118 251.257V231.465H409.858V251.257C409.857 251.81 409.662 252.341 409.316 252.732C408.969 253.123 408.499 253.343 408.009 253.344Z" fill="#E1E5EE"/>
<path d="M441.51 231.186H224.346V232.02H441.51V231.186Z" fill="#E1E5EE"/>
<path d="M224.362 238.716C227.875 238.716 230.723 235.502 230.723 231.538C230.723 227.573 227.875 224.359 224.362 224.359C220.848 224.359 218 227.573 218 231.538C218 235.502 220.848 238.716 224.362 238.716Z" fill="#2A324B"/>
<path d="M289.008 238.716C292.521 238.716 295.37 235.502 295.37 231.538C295.37 227.573 292.521 224.359 289.008 224.359C285.495 224.359 282.646 227.573 282.646 231.538C282.646 235.502 285.495 238.716 289.008 238.716Z" fill="#2A324B"/>
<path d="M332.88 259.815C336.394 259.815 339.242 256.601 339.242 252.636C339.242 248.672 336.394 245.458 332.88 245.458C329.367 245.458 326.519 248.672 326.519 252.636C326.519 256.601 329.367 259.815 332.88 259.815Z" fill="#F7C59F"/>
<path d="M366.233 259.815C369.746 259.815 372.594 256.601 372.594 252.636C372.594 248.672 369.746 245.458 366.233 245.458C362.719 245.458 359.871 248.672 359.871 252.636C359.871 256.601 362.719 259.815 366.233 259.815Z" fill="#C7CCDB"/>
<path d="M350.071 238.716C353.584 238.716 356.432 235.502 356.432 231.538C356.432 227.573 353.584 224.359 350.071 224.359C346.557 224.359 343.709 227.573 343.709 231.538C343.709 235.502 346.557 238.716 350.071 238.716Z" fill="#2A324B"/>
<path d="M440.639 238.716C444.152 238.716 447.001 235.502 447.001 231.538C447.001 227.573 444.152 224.359 440.639 224.359C437.126 224.359 434.277 227.573 434.277 231.538C434.277 235.502 437.126 238.716 440.639 238.716Z" fill="#2A324B"/>
<path d="M409.49 238.716C413.003 238.716 415.851 235.502 415.851 231.538C415.851 227.573 413.003 224.359 409.49 224.359C405.976 224.359 403.128 227.573 403.128 231.538C403.128 235.502 405.976 238.716 409.49 238.716Z" fill="#2A324B"/>
<path d="M244.089 232.02C243.99 232.02 243.896 231.976 243.827 231.898C243.758 231.819 243.719 231.713 243.719 231.603V211.004C243.719 210.45 243.914 209.92 244.261 209.529C244.608 209.138 245.078 208.918 245.568 208.917H263.569C263.667 208.917 263.761 208.961 263.83 209.039C263.9 209.117 263.938 209.224 263.938 209.334C263.938 209.445 263.9 209.551 263.83 209.629C263.761 209.708 263.667 209.752 263.569 209.752H245.568C245.274 209.752 244.992 209.884 244.784 210.119C244.576 210.353 244.459 210.672 244.458 211.004V231.603C244.458 231.713 244.419 231.819 244.35 231.898C244.281 231.976 244.187 232.02 244.089 232.02Z" fill="#E1E5EE"/>
<path d="M264.415 216.357C267.929 216.357 270.777 213.143 270.777 209.178C270.777 205.214 267.929 202 264.415 202C260.902 202 258.054 205.214 258.054 209.178C258.054 213.143 260.902 216.357 264.415 216.357Z" fill="#C7CCDB"/>
<path d="M386.469 231.603H385.729V211.004C385.73 210.45 385.925 209.92 386.272 209.529C386.618 209.138 387.088 208.918 387.579 208.917H405.579V209.752H387.579C387.284 209.752 387.002 209.884 386.794 210.119C386.586 210.353 386.469 210.672 386.469 211.004V231.603Z" fill="#E1E5EE"/>
<path d="M406.425 216.357C409.938 216.357 412.787 213.143 412.787 209.178C412.787 205.214 409.938 202 406.425 202C402.912 202 400.063 205.214 400.063 209.178C400.063 213.143 402.912 216.357 406.425 216.357Z" fill="#C7CCDB"/>
</g>
<defs>
<filter id="filter0_d" x="-8.84082" y="322.539" width="276.191" height="8.96857" filterUnits="userSpaceOnUse" color-interpolation-filters="sRGB">
<feFlood flood-opacity="0" result="BackgroundImageFix"/>
<feColorMatrix in="SourceAlpha" type="matrix" values="0 0 0 0 0 0 0 0 0 0 0 0 0 0 0 0 0 0 127 0" result="hardAlpha"/>
<feOffset dy="4"/>
<feGaussianBlur stdDeviation="2"/>
<feComposite in2="hardAlpha" operator="out"/>
<feColorMatrix type="matrix" values="0 0 0 0 0 0 0 0 0 0 0 0 0 0 0 0 0 0 0.1 0"/>
<feBlend mode="normal" in2="BackgroundImageFix" result="effect1_dropShadow"/>
<feBlend mode="normal" in="SourceGraphic" in2="effect1_dropShadow" result="shape"/>
</filter>
<filter id="filter1_d" x="35.7441" y="302.62" width="77.9949" height="54.8859" filterUnits="userSpaceOnUse" color-interpolation-filters="sRGB">
<feFlood flood-opacity="0" result="BackgroundImageFix"/>
<feColorMatrix in="SourceAlpha" type="matrix" values="0 0 0 0 0 0 0 0 0 0 0 0 0 0 0 0 0 0 127 0" result="hardAlpha"/>
<feOffset dy="4"/>
<feGaussianBlur stdDeviation="6.5"/>
<feComposite in2="hardAlpha" operator="out"/>
<feColorMatrix type="matrix" values="0 0 0 0 0.164706 0 0 0 0 0.196078 0 0 0 0 0.294118 0 0 0 0.1 0"/>
<feBlend mode="normal" in2="BackgroundImageFix" result="effect1_dropShadow"/>
<feBlend mode="normal" in="SourceGraphic" in2="effect1_dropShadow" result="shape"/>
</filter>
<filter id="filter2_d" x="18.2266" y="296.844" width="50.9515" height="67.7149" filterUnits="userSpaceOnUse" color-interpolation-filters="sRGB">
<feFlood flood-opacity="0" result="BackgroundImageFix"/>
<feColorMatrix in="SourceAlpha" type="matrix" values="0 0 0 0 0 0 0 0 0 0 0 0 0 0 0 0 0 0 127 0" result="hardAlpha"/>
<feOffset dy="4"/>
<feGaussianBlur stdDeviation="6.5"/>
<feComposite in2="hardAlpha" operator="out"/>
<feColorMatrix type="matrix" values="0 0 0 0 0.164706 0 0 0 0 0.196078 0 0 0 0 0.294118 0 0 0 0.1 0"/>
<feBlend mode="normal" in2="BackgroundImageFix" result="effect1_dropShadow"/>
<feBlend mode="normal" in="SourceGraphic" in2="effect1_dropShadow" result="shape"/>
</filter>
<filter id="filter3_d" x="60.2139" y="60.8662" width="91.4166" height="91.391" filterUnits="userSpaceOnUse" color-interpolation-filters="sRGB">
<feFlood flood-opacity="0" result="BackgroundImageFix"/>
<feColorMatrix in="SourceAlpha" type="matrix" values="0 0 0 0 0 0 0 0 0 0 0 0 0 0 0 0 0 0 127 0" result="hardAlpha"/>
<feOffset dy="4"/>
<feGaussianBlur stdDeviation="6.5"/>
<feComposite in2="hardAlpha" operator="out"/>
<feColorMatrix type="matrix" values="0 0 0 0 0.164706 0 0 0 0 0.196078 0 0 0 0 0.294118 0 0 0 0.1 0"/>
<feBlend mode="normal" in2="BackgroundImageFix" result="effect1_dropShadow"/>
<feBlend mode="normal" in="SourceGraphic" in2="effect1_dropShadow" result="shape"/>
</filter>
<filter id="filter4_d" x="55.8594" y="47.6592" width="98.2096" height="78.4819" filterUnits="userSpaceOnUse" color-interpolation-filters="sRGB">
<feFlood flood-opacity="0" result="BackgroundImageFix"/>
<feColorMatrix in="SourceAlpha" type="matrix" values="0 0 0 0 0 0 0 0 0 0 0 0 0 0 0 0 0 0 127 0" result="hardAlpha"/>
<feOffset dy="4"/>
<feGaussianBlur stdDeviation="6.5"/>
<feComposite in2="hardAlpha" operator="out"/>
<feColorMatrix type="matrix" values="0 0 0 0 0.164706 0 0 0 0 0.196078 0 0 0 0 0.294118 0 0 0 0.1 0"/>
<feBlend mode="normal" in2="BackgroundImageFix" result="effect1_dropShadow"/>
<feBlend mode="normal" in="SourceGraphic" in2="effect1_dropShadow" result="shape"/>
</filter>
<filter id="filter5_d" x="19.3457" y="260.418" width="194.438" height="73.0966" filterUnits="userSpaceOnUse" color-interpolation-filters="sRGB">
<feFlood flood-opacity="0" result="BackgroundImageFix"/>
<feColorMatrix in="SourceAlpha" type="matrix" values="0 0 0 0 0 0 0 0 0 0 0 0 0 0 0 0 0 0 127 0" result="hardAlpha"/>
<feOffset dy="4"/>
<feGaussianBlur stdDeviation="6.5"/>
<feComposite in2="hardAlpha" operator="out"/>
<feColorMatrix type="matrix" values="0 0 0 0 0.164706 0 0 0 0 0.196078 0 0 0 0 0.294118 0 0 0 0.1 0"/>
<feBlend mode="normal" in2="BackgroundImageFix" result="effect1_dropShadow"/>
<feBlend mode="normal" in="SourceGraphic" in2="effect1_dropShadow" result="shape"/>
</filter>
<filter id="filter6_d" x="26.1904" y="131.616" width="163.079" height="163.98" filterUnits="userSpaceOnUse" color-interpolation-filters="sRGB">
<feFlood flood-opacity="0" result="BackgroundImageFix"/>
<feColorMatrix in="SourceAlpha" type="matrix" values="0 0 0 0 0 0 0 0 0 0 0 0 0 0 0 0 0 0 127 0" result="hardAlpha"/>
<feOffset dy="4"/>
<feGaussianBlur stdDeviation="6.5"/>
<feComposite in2="hardAlpha" operator="out"/>
<feColorMatrix type="matrix" values="0 0 0 0 0.164706 0 0 0 0 0.196078 0 0 0 0 0.294118 0 0 0 0.1 0"/>
<feBlend mode="normal" in2="BackgroundImageFix" result="effect1_dropShadow"/>
<feBlend mode="normal" in="SourceGraphic" in2="effect1_dropShadow" result="shape"/>
</filter>
<filter id="filter7_d" x="15.7871" y="198.529" width="99.2954" height="87.1667" filterUnits="userSpaceOnUse" color-interpolation-filters="sRGB">
<feFlood flood-opacity="0" result="BackgroundImageFix"/>
<feColorMatrix in="SourceAlpha" type="matrix" values="0 0 0 0 0 0 0 0 0 0 0 0 0 0 0 0 0 0 127 0" result="hardAlpha"/>
<feOffset dy="4"/>
<feGaussianBlur stdDeviation="6.5"/>
<feComposite in2="hardAlpha" operator="out"/>
<feColorMatrix type="matrix" values="0 0 0 0 0.164706 0 0 0 0 0.196078 0 0 0 0 0.294118 0 0 0 0.1 0"/>
<feBlend mode="normal" in2="BackgroundImageFix" result="effect1_dropShadow"/>
<feBlend mode="normal" in="SourceGraphic" in2="effect1_dropShadow" result="shape"/>
</filter>
<filter id="filter8_d" x="57.3125" y="260.982" width="174.113" height="97.6703" filterUnits="userSpaceOnUse" color-interpolation-filters="sRGB">
<feFlood flood-opacity="0" result="BackgroundImageFix"/>
<feColorMatrix in="SourceAlpha" type="matrix" values="0 0 0 0 0 0 0 0 0 0 0 0 0 0 0 0 0 0 127 0" result="hardAlpha"/>
<feOffset dy="4"/>
<feGaussianBlur stdDeviation="6.5"/>
<feComposite in2="hardAlpha" operator="out"/>
<feColorMatrix type="matrix" values="0 0 0 0 0.164706 0 0 0 0 0.196078 0 0 0 0 0.294118 0 0 0 0.1 0"/>
<feBlend mode="normal" in2="BackgroundImageFix" result="effect1_dropShadow"/>
<feBlend mode="normal" in="SourceGraphic" in2="effect1_dropShadow" result="shape"/>
</filter>
<filter id="filter9_d" x="14.2236" y="159.586" width="62.1852" height="73.9615" filterUnits="userSpaceOnUse" color-interpolation-filters="sRGB">
<feFlood flood-opacity="0" result="BackgroundImageFix"/>
<feColorMatrix in="SourceAlpha" type="matrix" values="0 0 0 0 0 0 0 0 0 0 0 0 0 0 0 0 0 0 127 0" result="hardAlpha"/>
<feOffset dy="4"/>
<feGaussianBlur stdDeviation="6.5"/>
<feComposite in2="hardAlpha" operator="out"/>
<feColorMatrix type="matrix" values="0 0 0 0 0.164706 0 0 0 0 0.196078 0 0 0 0 0.294118 0 0 0 0.1 0"/>
<feBlend mode="normal" in2="BackgroundImageFix" result="effect1_dropShadow"/>
<feBlend mode="normal" in="SourceGraphic" in2="effect1_dropShadow" result="shape"/>
</filter>
<filter id="filter10_d" x="94.415" y="198.529" width="99.2953" height="86.3316" filterUnits="userSpaceOnUse" color-interpolation-filters="sRGB">
<feFlood flood-opacity="0" result="BackgroundImageFix"/>
<feColorMatrix in="SourceAlpha" type="matrix" values="0 0 0 0 0 0 0 0 0 0 0 0 0 0 0 0 0 0 127 0" result="hardAlpha"/>
<feOffset dy="4"/>
<feGaussianBlur stdDeviation="6.5"/>
<feComposite in2="hardAlpha" operator="out"/>
<feColorMatrix type="matrix" values="0 0 0 0 0.164706 0 0 0 0 0.196078 0 0 0 0 0.294118 0 0 0 0.1 0"/>
<feBlend mode="normal" in2="BackgroundImageFix" result="effect1_dropShadow"/>
<feBlend mode="normal" in="SourceGraphic" in2="effect1_dropShadow" result="shape"/>
</filter>
<filter id="filter11_d" x="133.087" y="159.586" width="62.1852" height="73.9615" filterUnits="userSpaceOnUse" color-interpolation-filters="sRGB">
<feFlood flood-opacity="0" result="BackgroundImageFix"/>
<feColorMatrix in="SourceAlpha" type="matrix" values="0 0 0 0 0 0 0 0 0 0 0 0 0 0 0 0 0 0 127 0" result="hardAlpha"/>
<feOffset dy="4"/>
<feGaussianBlur stdDeviation="6.5"/>
<feComposite in2="hardAlpha" operator="out"/>
<feColorMatrix type="matrix" values="0 0 0 0 0.164706 0 0 0 0 0.196078 0 0 0 0 0.294118 0 0 0 0.1 0"/>
<feBlend mode="normal" in2="BackgroundImageFix" result="effect1_dropShadow"/>
<feBlend mode="normal" in="SourceGraphic" in2="effect1_dropShadow" result="shape"/>
</filter>
<filter id="filter12_d" x="118.143" y="314.259" width="78.5063" height="45.5873" filterUnits="userSpaceOnUse" color-interpolation-filters="sRGB">
<feFlood flood-opacity="0" result="BackgroundImageFix"/>
<feColorMatrix in="SourceAlpha" type="matrix" values="0 0 0 0 0 0 0 0 0 0 0 0 0 0 0 0 0 0 127 0" result="hardAlpha"/>
<feOffset dy="4"/>
<feGaussianBlur stdDeviation="6.5"/>
<feComposite in2="hardAlpha" operator="out"/>
<feColorMatrix type="matrix" values="0 0 0 0 0.164706 0 0 0 0 0.196078 0 0 0 0 0.294118 0 0 0 0.1 0"/>
<feBlend mode="normal" in2="BackgroundImageFix" result="effect1_dropShadow"/>
<feBlend mode="normal" in="SourceGraphic" in2="effect1_dropShadow" result="shape"/>
</filter>
<filter id="filter13_d" x="163.325" y="317.033" width="46.32" height="69.9831" filterUnits="userSpaceOnUse" color-interpolation-filters="sRGB">
<feFlood flood-opacity="0" result="BackgroundImageFix"/>
<feColorMatrix in="SourceAlpha" type="matrix" values="0 0 0 0 0 0 0 0 0 0 0 0 0 0 0 0 0 0 127 0" result="hardAlpha"/>
<feOffset dy="4"/>
<feGaussianBlur stdDeviation="6.5"/>
<feComposite in2="hardAlpha" operator="out"/>
<feColorMatrix type="matrix" values="0 0 0 0 0.164706 0 0 0 0 0.196078 0 0 0 0 0.294118 0 0 0 0.1 0"/>
<feBlend mode="normal" in2="BackgroundImageFix" result="effect1_dropShadow"/>
<feBlend mode="normal" in="SourceGraphic" in2="effect1_dropShadow" result="shape"/>
</filter>
<filter id="filter14_d" x="3.24414" y="255.013" width="181.443" height="113.185" filterUnits="userSpaceOnUse" color-interpolation-filters="sRGB">
<feFlood flood-opacity="0" result="BackgroundImageFix"/>
<feColorMatrix in="SourceAlpha" type="matrix" values="0 0 0 0 0 0 0 0 0 0 0 0 0 0 0 0 0 0 127 0" result="hardAlpha"/>
<feOffset dy="4"/>
<feGaussianBlur stdDeviation="6.5"/>
<feComposite in2="hardAlpha" operator="out"/>
<feColorMatrix type="matrix" values="0 0 0 0 0.164706 0 0 0 0 0.196078 0 0 0 0 0.294118 0 0 0 0.1 0"/>
<feBlend mode="normal" in2="BackgroundImageFix" result="effect1_dropShadow"/>
<feBlend mode="normal" in="SourceGraphic" in2="effect1_dropShadow" result="shape"/>
</filter>
<filter id="filter15_d" x="216.431" y="290.262" width="56.169" height="50.7579" filterUnits="userSpaceOnUse" color-interpolation-filters="sRGB">
<feFlood flood-opacity="0" result="BackgroundImageFix"/>
<feColorMatrix in="SourceAlpha" type="matrix" values="0 0 0 0 0 0 0 0 0 0 0 0 0 0 0 0 0 0 127 0" result="hardAlpha"/>
<feOffset dy="4"/>
<feGaussianBlur stdDeviation="7"/>
<feComposite in2="hardAlpha" operator="out"/>
<feColorMatrix type="matrix" values="0 0 0 0 0.968627 0 0 0 0 0.772549 0 0 0 0 0.623529 0 0 0 0.1 0"/>
<feBlend mode="normal" in2="BackgroundImageFix" result="effect1_dropShadow"/>
<feBlend mode="normal" in="SourceGraphic" in2="effect1_dropShadow" result="shape"/>
</filter>
<filter id="filter16_d" x="208" y="196" width="249.001" height="77.8149" filterUnits="userSpaceOnUse" color-interpolation-filters="sRGB">
<feFlood flood-opacity="0" result="BackgroundImageFix"/>
<feColorMatrix in="SourceAlpha" type="matrix" values="0 0 0 0 0 0 0 0 0 0 0 0 0 0 0 0 0 0 127 0" result="hardAlpha"/>
<feOffset dy="4"/>
<feGaussianBlur stdDeviation="5"/>
<feComposite in2="hardAlpha" operator="out"/>
<feColorMatrix type="matrix" values="0 0 0 0 0 0 0 0 0 0 0 0 0 0 0 0 0 0 0.15 0"/>
<feBlend mode="normal" in2="BackgroundImageFix" result="effect1_dropShadow"/>
<feBlend mode="normal" in="SourceGraphic" in2="effect1_dropShadow" result="shape"/>
</filter>
<clipPath id="clip0">
<rect width="274" height="370" fill="white"/>
</clipPath>
</defs>
</svg>
